# xmcd
#
# Track frame offsets: 
#        150
#        2443
#        28051
#        52523
#        73862
#        91763
#        110120
#        123095
#        143992
#        160018
#        188569
#        208342
#        227720
#        245814
#
# Disc length: 3511 seconds
#
# Revision: 1
# Processed by: cddbd v1.5.2PL0 Copyright (c) Steve Scherf et al.
# Submitted via: ExactAudioCopy v0.99pb5
#
DISCID=b70db50e
DTITLE=Darren Motamedy - Don't Cha' Know
DYEAR=2007
DGENRE=Darren Motamedy
TTITLE0=Love You Just So Much-Intro
TTITLE1=Love You Just So Much
TTITLE2=BaBaDooDaht!
TTITLE3=Summertime
TTITLE4=After the Storm
TTITLE5=Meditations in Love
TTITLE6=Supreme Love
TTITLE7=Don''t Cha' Know!
TTITLE8=Hip
TTITLE9=Makes Me Feel Young
TTITLE10=Dance with My Father
TTITLE11=Going's Gruv
TTITLE12=Double Cache'
TTITLE13=Lonely Hearts at Sea
EXTD=
EXTT0=
EXTT1=
EXTT2=
EXTT3=
EXTT4=
EXTT5=
EXTT6=
EXTT7=
EXTT8=
EXTT9=
EXTT10=
EXTT11=
EXTT12=
EXTT13=
PLAYORDER=
